<svg width="70" height="73" viewBox="0 0 70 73" fill="none" xmlns="http://www.w3.org/2000/svg">
<g filter="url(#filter0_d)">
<rect x="15" width="36" height="44" fill="black"/>
</g>
<path d="M16.6381 70C16.4848 70 16.3514 69.9433 16.2381 69.83C16.1314 69.7167 16.0781 69.5833 16.0781 69.43V63.27C16.0781 63.1167 16.1314 62.9833 16.2381 62.87C16.3514 62.7567 16.4848 62.7 16.6381 62.7H16.9581C17.1114 62.7 17.2448 62.7567 17.3581 62.87C17.4714 62.9833 17.5281 63.1167 17.5281 63.27V68.75C17.5281 68.81 17.5548 68.84 17.6081 68.84H20.1781C20.3314 68.84 20.4614 68.8967 20.5681 69.01C20.6814 69.1167 20.7381 69.2467 20.7381 69.4V69.43C20.7381 69.5833 20.6814 69.7167 20.5681 69.83C20.4614 69.9433 20.3314 70 20.1781 70H16.6381ZM24.8291 66.09C24.6358 65.81 24.3424 65.67 23.9491 65.67C23.5558 65.67 23.2591 65.81 23.0591 66.09C22.8658 66.3633 22.7691 66.8 22.7691 67.4C22.7691 68 22.8658 68.44 23.0591 68.72C23.2591 68.9933 23.5558 69.13 23.9491 69.13C24.3424 69.13 24.6358 68.9933 24.8291 68.72C25.0291 68.44 25.1291 68 25.1291 67.4C25.1291 66.8 25.0291 66.3633 24.8291 66.09ZM25.8091 69.4C25.3691 69.8667 24.7491 70.1 23.9491 70.1C23.1491 70.1 22.5258 69.8667 22.0791 69.4C21.6391 68.9267 21.4191 68.26 21.4191 67.4C21.4191 66.54 21.6391 65.8767 22.0791 65.41C22.5258 64.9367 23.1491 64.7 23.9491 64.7C24.7491 64.7 25.3691 64.9367 25.8091 65.41C26.2558 65.8767 26.4791 66.54 26.4791 67.4C26.4791 68.26 26.2558 68.9267 25.8091 69.4ZM29.7289 65.7C28.9956 65.7 28.6289 66.2333 28.6289 67.3C28.6289 67.8533 28.7256 68.2667 28.9189 68.54C29.1189 68.8133 29.3889 68.95 29.7289 68.95C30.0289 68.95 30.2856 68.8433 30.4989 68.63C30.7189 68.4167 30.8289 68.1667 30.8289 67.88V66.8C30.8289 66.4933 30.7189 66.2333 30.4989 66.02C30.2856 65.8067 30.0289 65.7 29.7289 65.7ZM29.3089 69.95C28.7223 69.95 28.2423 69.7167 27.8689 69.25C27.4956 68.7767 27.3089 68.1267 27.3089 67.3C27.3089 66.4733 27.4856 65.8333 27.8389 65.38C28.1989 64.9267 28.6889 64.7 29.3089 64.7C29.6223 64.7 29.8989 64.7567 30.1389 64.87C30.3789 64.9833 30.6156 65.1733 30.8489 65.44C30.8556 65.4467 30.8623 65.45 30.8689 65.45C30.8756 65.45 30.8789 65.4467 30.8789 65.44V65.37C30.8856 65.21 30.9456 65.0767 31.0589 64.97C31.1723 64.8567 31.3089 64.8 31.4689 64.8H31.5789C31.7323 64.8 31.8623 64.8567 31.9689 64.97C32.0823 65.0833 32.1389 65.2167 32.1389 65.37V69.6C32.1389 71.4 31.2389 72.3 29.4389 72.3C29.1189 72.3 28.7823 72.2733 28.4289 72.22C28.2689 72.1933 28.1356 72.1133 28.0289 71.98C27.9289 71.8533 27.8789 71.7067 27.8789 71.54C27.8789 71.4067 27.9323 71.3 28.0389 71.22C28.1523 71.1467 28.2756 71.1267 28.4089 71.16C28.7289 71.24 29.0623 71.28 29.4089 71.28C29.9023 71.28 30.2623 71.15 30.4889 70.89C30.7156 70.6367 30.8289 70.2167 30.8289 69.63V69.32C30.8289 69.3133 30.8256 69.31 30.8189 69.31C30.8123 69.31 30.8056 69.3133 30.7989 69.32C30.3989 69.74 29.9023 69.95 29.3089 69.95ZM36.5771 66.09C36.3838 65.81 36.0905 65.67 35.6971 65.67C35.3038 65.67 35.0071 65.81 34.8071 66.09C34.6138 66.3633 34.5171 66.8 34.5171 67.4C34.5171 68 34.6138 68.44 34.8071 68.72C35.0071 68.9933 35.3038 69.13 35.6971 69.13C36.0905 69.13 36.3838 68.9933 36.5771 68.72C36.7771 68.44 36.8771 68 36.8771 67.4C36.8771 66.8 36.7771 66.3633 36.5771 66.09ZM37.5571 69.4C37.1171 69.8667 36.4971 70.1 35.6971 70.1C34.8971 70.1 34.2738 69.8667 33.8271 69.4C33.3871 68.9267 33.1671 68.26 33.1671 67.4C33.1671 66.54 33.3871 65.8767 33.8271 65.41C34.2738 64.9367 34.8971 64.7 35.6971 64.7C36.4971 64.7 37.1171 64.9367 37.5571 65.41C38.0038 65.8767 38.2271 66.54 38.2271 67.4C38.2271 68.26 38.0038 68.9267 37.5571 69.4ZM40.8893 70.1C40.3027 70.1 39.876 69.94 39.6093 69.62C39.3427 69.2933 39.2093 68.7433 39.2093 67.97V65.37C39.2093 65.2167 39.266 65.0833 39.3793 64.97C39.4927 64.8567 39.626 64.8 39.7793 64.8H39.9393C40.0927 64.8 40.226 64.8567 40.3393 64.97C40.4527 65.0833 40.5093 65.2167 40.5093 65.37V67.83C40.5093 68.2967 40.5727 68.62 40.6993 68.8C40.826 68.98 41.0393 69.07 41.3393 69.07C41.6127 69.07 41.866 68.9533 42.0993 68.72C42.3393 68.4867 42.4593 68.2367 42.4593 67.97V65.37C42.4593 65.2167 42.516 65.0833 42.6293 64.97C42.7427 64.8567 42.876 64.8 43.0293 64.8H43.2293C43.3827 64.8 43.5127 64.8567 43.6193 64.97C43.7327 65.0833 43.7893 65.2167 43.7893 65.37V69.43C43.7893 69.5833 43.7327 69.7167 43.6193 69.83C43.5127 69.9433 43.3827 70 43.2293 70H43.0993C42.9393 70 42.8027 69.9467 42.6893 69.84C42.5827 69.7267 42.526 69.59 42.5193 69.43L42.5093 69.36C42.5093 69.3533 42.506 69.35 42.4993 69.35C42.4927 69.35 42.486 69.3533 42.4793 69.36C42.026 69.8533 41.496 70.1 40.8893 70.1ZM45.3975 65.97C45.2642 65.97 45.1509 65.9233 45.0575 65.83C44.9642 65.73 44.9175 65.6133 44.9175 65.48C44.9175 65.3467 44.9642 65.2333 45.0575 65.14C45.1509 65.0467 45.2642 65 45.3975 65H45.8775C45.9375 65 45.9675 64.97 45.9675 64.91V63.67C45.9675 63.5167 46.0209 63.3833 46.1275 63.27C46.2409 63.1567 46.3742 63.1 46.5275 63.1H46.7275C46.8809 63.1 47.0142 63.1567 47.1275 63.27C47.2409 63.3833 47.2975 63.5167 47.2975 63.67V64.91C47.2975 64.97 47.3275 65 47.3875 65H48.5275C48.6609 65 48.7742 65.0467 48.8675 65.14C48.9675 65.2333 49.0175 65.3467 49.0175 65.48C49.0175 65.6133 48.9675 65.73 48.8675 65.83C48.7742 65.9233 48.6609 65.97 48.5275 65.97H47.3875C47.3275 65.97 47.2975 65.9967 47.2975 66.05V68.07C47.2975 68.5033 47.3442 68.7833 47.4375 68.91C47.5309 69.0367 47.7242 69.1 48.0175 69.1C48.1775 69.1 48.2975 69.0933 48.3775 69.08C48.5109 69.0667 48.6275 69.0967 48.7275 69.17C48.8275 69.2433 48.8775 69.3433 48.8775 69.47C48.8775 69.6167 48.8275 69.75 48.7275 69.87C48.6342 69.9833 48.5175 70.0467 48.3775 70.06C48.0842 70.0867 47.8642 70.1 47.7175 70.1C47.0709 70.1 46.6175 69.9633 46.3575 69.69C46.0975 69.41 45.9675 68.9133 45.9675 68.2V66.05C45.9675 65.9967 45.9375 65.97 45.8775 65.97H45.3975Z" fill="black"/>
<path d="M69.0607 23.0607C69.6464 22.4749 69.6464 21.5251 69.0607 20.9393L59.5147 11.3934C58.9289 10.8076 57.9792 10.8076 57.3934 11.3934C56.8076 11.9792 56.8076 12.9289 57.3934 13.5147L65.8787 22L57.3934 30.4853C56.8076 31.0711 56.8076 32.0208 57.3934 32.6066C57.9792 33.1924 58.9289 33.1924 59.5147 32.6066L69.0607 23.0607ZM51 23.5H68V20.5H51V23.5Z" fill="black"/>
<defs>
<filter id="filter0_d" x="15" y="0" width="45" height="52" filterUnits="userSpaceOnUse" color-interpolation-filters="sRGB">
<feFlood flood-opacity="0" result="BackgroundImageFix"/>
<feColorMatrix in="SourceAlpha" type="matrix" values="0 0 0 0 0 0 0 0 0 0 0 0 0 0 0 0 0 0 127 0"/>
<feOffset dx="5" dy="4"/>
<feGaussianBlur stdDeviation="2"/>
<feColorMatrix type="matrix" values="0 0 0 0 0.917647 0 0 0 0 0.701961 0 0 0 0 0 0 0 0 1 0"/>
<feBlend mode="normal" in2="BackgroundImageFix" result="effect1_dropShadow"/>
<feBlend mode="normal" in="SourceGraphic" in2="effect1_dropShadow" result="shape"/>
</filter>
</defs>
</svg>
