<svg width="65" height="72" viewBox="0 0 65 72" fill="none" xmlns="http://www.w3.org/2000/svg">
<path d="M16.1809 66.228C15.4609 65.988 14.9389 65.697 14.6149 65.355C14.2969 65.013 14.1379 64.599 14.1379 64.113C14.1379 63.567 14.3209 63.135 14.6869 62.817C15.0529 62.499 15.5659 62.34 16.2259 62.34C16.7839 62.34 17.2699 62.403 17.6839 62.529C17.8279 62.571 17.9419 62.658 18.0259 62.79C18.1159 62.916 18.1609 63.057 18.1609 63.213V63.294C18.1609 63.408 18.1099 63.498 18.0079 63.564C17.9059 63.624 17.8009 63.633 17.6929 63.591C17.2429 63.417 16.7839 63.33 16.3159 63.33C16.0159 63.33 15.7879 63.399 15.6319 63.537C15.4759 63.675 15.3979 63.867 15.3979 64.113C15.3979 64.545 15.6799 64.854 16.2439 65.04C17.0539 65.298 17.6149 65.592 17.9269 65.922C18.2449 66.252 18.4039 66.678 18.4039 67.2C18.4039 68.46 17.6269 69.09 16.0729 69.09C15.5869 69.09 15.1459 69.015 14.7499 68.865C14.6059 68.811 14.4919 68.718 14.4079 68.586C14.3299 68.454 14.2909 68.307 14.2909 68.145V68.037C14.2909 67.923 14.3389 67.842 14.4349 67.794C14.5309 67.74 14.6299 67.737 14.7319 67.785C15.1279 67.983 15.5449 68.082 15.9829 68.082C16.7449 68.082 17.1259 67.794 17.1259 67.218C17.1259 66.984 17.0539 66.792 16.9099 66.642C16.7659 66.486 16.5229 66.348 16.1809 66.228ZM21.4191 65.067C21.1131 65.067 20.8761 65.154 20.7081 65.328C20.5461 65.496 20.4441 65.769 20.4021 66.147C20.4021 66.195 20.4261 66.219 20.4741 66.219H22.2381C22.2861 66.219 22.3101 66.195 22.3101 66.147C22.2861 65.427 21.9891 65.067 21.4191 65.067ZM21.6441 69.09C20.8581 69.09 20.2521 68.886 19.8261 68.478C19.4061 68.064 19.1961 67.458 19.1961 66.66C19.1961 65.868 19.3851 65.265 19.7631 64.851C20.1411 64.437 20.6871 64.23 21.4011 64.23C22.7331 64.23 23.4171 64.986 23.4531 66.498C23.4591 66.642 23.4081 66.762 23.3001 66.858C23.1921 66.954 23.0661 67.002 22.9221 67.002H20.4651C20.4111 67.002 20.3901 67.029 20.4021 67.083C20.4441 67.485 20.5761 67.779 20.7981 67.965C21.0261 68.145 21.3561 68.235 21.7881 68.235C22.0581 68.235 22.3581 68.19 22.6881 68.1C22.7961 68.07 22.8951 68.088 22.9851 68.154C23.0811 68.22 23.1291 68.31 23.1291 68.424C23.1291 68.562 23.0871 68.685 23.0031 68.793C22.9251 68.895 22.8201 68.958 22.6881 68.982C22.3521 69.054 22.0041 69.09 21.6441 69.09ZM24.5433 65.373C24.4233 65.373 24.3213 65.331 24.2373 65.247C24.1533 65.157 24.1113 65.052 24.1113 64.932C24.1113 64.812 24.1533 64.71 24.2373 64.626C24.3213 64.542 24.4233 64.5 24.5433 64.5H24.9753C25.0293 64.5 25.0563 64.473 25.0563 64.419V63.303C25.0563 63.165 25.1043 63.045 25.2003 62.943C25.3023 62.841 25.4223 62.79 25.5603 62.79H25.7403C25.8783 62.79 25.9983 62.841 26.1003 62.943C26.2023 63.045 26.2533 63.165 26.2533 63.303V64.419C26.2533 64.473 26.2803 64.5 26.3343 64.5H27.3603C27.4803 64.5 27.5823 64.542 27.6663 64.626C27.7563 64.71 27.8013 64.812 27.8013 64.932C27.8013 65.052 27.7563 65.157 27.6663 65.247C27.5823 65.331 27.4803 65.373 27.3603 65.373H26.3343C26.2803 65.373 26.2533 65.397 26.2533 65.445V67.263C26.2533 67.653 26.2953 67.905 26.3793 68.019C26.4633 68.133 26.6373 68.19 26.9013 68.19C27.0453 68.19 27.1533 68.184 27.2253 68.172C27.3453 68.16 27.4503 68.187 27.5403 68.253C27.6303 68.319 27.6753 68.409 27.6753 68.523C27.6753 68.655 27.6303 68.775 27.5403 68.883C27.4563 68.985 27.3513 69.042 27.2253 69.054C26.9613 69.078 26.7633 69.09 26.6313 69.09C26.0493 69.09 25.6413 68.967 25.4073 68.721C25.1733 68.469 25.0563 68.022 25.0563 67.38V65.445C25.0563 65.397 25.0293 65.373 24.9753 65.373H24.5433ZM29.0785 65.373C28.9585 65.373 28.8565 65.331 28.7725 65.247C28.6885 65.157 28.6465 65.052 28.6465 64.932C28.6465 64.812 28.6885 64.71 28.7725 64.626C28.8565 64.542 28.9585 64.5 29.0785 64.5H29.5105C29.5645 64.5 29.5915 64.473 29.5915 64.419V63.303C29.5915 63.165 29.6395 63.045 29.7355 62.943C29.8375 62.841 29.9575 62.79 30.0955 62.79H30.2755C30.4135 62.79 30.5335 62.841 30.6355 62.943C30.7375 63.045 30.7885 63.165 30.7885 63.303V64.419C30.7885 64.473 30.8155 64.5 30.8695 64.5H31.8955C32.0155 64.5 32.1175 64.542 32.2015 64.626C32.2915 64.71 32.3365 64.812 32.3365 64.932C32.3365 65.052 32.2915 65.157 32.2015 65.247C32.1175 65.331 32.0155 65.373 31.8955 65.373H30.8695C30.8155 65.373 30.7885 65.397 30.7885 65.445V67.263C30.7885 67.653 30.8305 67.905 30.9145 68.019C30.9985 68.133 31.1725 68.19 31.4365 68.19C31.5805 68.19 31.6885 68.184 31.7605 68.172C31.8805 68.16 31.9855 68.187 32.0755 68.253C32.1655 68.319 32.2105 68.409 32.2105 68.523C32.2105 68.655 32.1655 68.775 32.0755 68.883C31.9915 68.985 31.8865 69.042 31.7605 69.054C31.4965 69.078 31.2985 69.09 31.1665 69.09C30.5845 69.09 30.1765 68.967 29.9425 68.721C29.7085 68.469 29.5915 68.022 29.5915 67.38V65.445C29.5915 65.397 29.5645 65.373 29.5105 65.373H29.0785ZM34.3654 69C34.2274 69 34.1074 68.949 34.0054 68.847C33.9034 68.745 33.8524 68.625 33.8524 68.487V64.833C33.8524 64.695 33.9034 64.575 34.0054 64.473C34.1074 64.371 34.2274 64.32 34.3654 64.32H34.5994C34.7374 64.32 34.8574 64.371 34.9594 64.473C35.0614 64.575 35.1124 64.695 35.1124 64.833V68.487C35.1124 68.625 35.0614 68.745 34.9594 68.847C34.8574 68.949 34.7374 69 34.5994 69H34.3654ZM34.3654 63.33C34.2274 63.33 34.1074 63.279 34.0054 63.177C33.9034 63.075 33.8524 62.955 33.8524 62.817V62.763C33.8524 62.625 33.9034 62.505 34.0054 62.403C34.1074 62.301 34.2274 62.25 34.3654 62.25H34.5994C34.7374 62.25 34.8574 62.301 34.9594 62.403C35.0614 62.505 35.1124 62.625 35.1124 62.763V62.817C35.1124 62.955 35.0614 63.075 34.9594 63.177C34.8574 63.279 34.7374 63.33 34.5994 63.33H34.3654ZM37.1364 69C36.9984 69 36.8784 68.949 36.7764 68.847C36.6744 68.745 36.6234 68.625 36.6234 68.487V64.833C36.6234 64.695 36.6744 64.575 36.7764 64.473C36.8784 64.371 36.9984 64.32 37.1364 64.32H37.2534C37.3974 64.32 37.5174 64.371 37.6134 64.473C37.7154 64.569 37.7694 64.689 37.7754 64.833V64.896C37.7754 64.902 37.7784 64.905 37.7844 64.905C37.7904 64.905 37.7964 64.902 37.8024 64.896C38.2104 64.452 38.6874 64.23 39.2334 64.23C39.7794 64.23 40.1754 64.386 40.4214 64.698C40.6734 65.004 40.7994 65.517 40.7994 66.237V68.487C40.7994 68.625 40.7484 68.745 40.6464 68.847C40.5444 68.949 40.4244 69 40.2864 69H40.1334C39.9954 69 39.8754 68.949 39.7734 68.847C39.6774 68.745 39.6294 68.625 39.6294 68.487V66.327C39.6294 65.877 39.5694 65.571 39.4494 65.409C39.3354 65.241 39.1284 65.157 38.8284 65.157C38.5824 65.157 38.3544 65.262 38.1444 65.472C37.9344 65.682 37.8294 65.907 37.8294 66.147V68.487C37.8294 68.625 37.7784 68.745 37.6764 68.847C37.5744 68.949 37.4544 69 37.3164 69H37.1364ZM43.9016 65.13C43.2416 65.13 42.9116 65.61 42.9116 66.57C42.9116 67.068 42.9986 67.44 43.1726 67.686C43.3526 67.932 43.5956 68.055 43.9016 68.055C44.1716 68.055 44.4026 67.959 44.5946 67.767C44.7926 67.575 44.8916 67.35 44.8916 67.092V66.12C44.8916 65.844 44.7926 65.61 44.5946 65.418C44.4026 65.226 44.1716 65.13 43.9016 65.13ZM43.5236 68.955C42.9956 68.955 42.5636 68.745 42.2276 68.325C41.8916 67.899 41.7236 67.314 41.7236 66.57C41.7236 65.826 41.8826 65.25 42.2006 64.842C42.5246 64.434 42.9656 64.23 43.5236 64.23C43.8056 64.23 44.0546 64.281 44.2706 64.383C44.4866 64.485 44.6996 64.656 44.9096 64.896C44.9156 64.902 44.9216 64.905 44.9276 64.905C44.9336 64.905 44.9366 64.902 44.9366 64.896V64.833C44.9426 64.689 44.9966 64.569 45.0986 64.473C45.2006 64.371 45.3236 64.32 45.4676 64.32H45.5666C45.7046 64.32 45.8216 64.371 45.9176 64.473C46.0196 64.575 46.0706 64.695 46.0706 64.833V68.64C46.0706 70.26 45.2606 71.07 43.6406 71.07C43.3526 71.07 43.0496 71.046 42.7316 70.998C42.5876 70.974 42.4676 70.902 42.3716 70.782C42.2816 70.668 42.2366 70.536 42.2366 70.386C42.2366 70.266 42.2846 70.17 42.3806 70.098C42.4826 70.032 42.5936 70.014 42.7136 70.044C43.0016 70.116 43.3016 70.152 43.6136 70.152C44.0576 70.152 44.3816 70.035 44.5856 69.801C44.7896 69.573 44.8916 69.195 44.8916 68.667V68.388C44.8916 68.382 44.8886 68.379 44.8826 68.379C44.8766 68.379 44.8706 68.382 44.8646 68.388C44.5046 68.766 44.0576 68.955 43.5236 68.955ZM48.9219 67.11C48.2919 66.972 47.8419 66.783 47.5719 66.543C47.3079 66.303 47.1759 65.991 47.1759 65.607C47.1759 65.175 47.3349 64.839 47.6529 64.599C47.9769 64.353 48.4539 64.23 49.0839 64.23C49.4799 64.23 49.8729 64.266 50.2629 64.338C50.3949 64.362 50.4999 64.428 50.5779 64.536C50.6619 64.638 50.7039 64.758 50.7039 64.896C50.7039 65.01 50.6589 65.103 50.5689 65.175C50.4789 65.241 50.3769 65.259 50.2629 65.229C49.9269 65.145 49.5729 65.103 49.2009 65.103C48.6609 65.103 48.3909 65.253 48.3909 65.553C48.3909 65.697 48.4419 65.817 48.5439 65.913C48.6459 66.009 48.8199 66.084 49.0659 66.138C49.7559 66.276 50.2269 66.462 50.4789 66.696C50.7369 66.93 50.8659 67.272 50.8659 67.722C50.8659 68.154 50.7039 68.49 50.3799 68.73C50.0559 68.97 49.5849 69.09 48.9669 69.09C48.5649 69.09 48.1539 69.042 47.7339 68.946C47.6019 68.916 47.4939 68.847 47.4099 68.739C47.3259 68.625 47.2839 68.496 47.2839 68.352C47.2839 68.238 47.3289 68.151 47.4189 68.091C47.5149 68.031 47.6169 68.016 47.7249 68.046C48.1149 68.154 48.4839 68.208 48.8319 68.208C49.3779 68.208 49.6509 68.046 49.6509 67.722C49.6509 67.566 49.5969 67.443 49.4889 67.353C49.3869 67.263 49.1979 67.182 48.9219 67.11Z" fill="black"/>
<g filter="url(#filter0_d)">
<rect x="25.2514" width="10.4973" height="48" fill="black"/>
<rect width="10.3903" height="48.5023" transform="matrix(0.667209 0.744871 -0.756868 0.653567 45.3887 4.28055)" fill="black"/>
<rect width="10.3068" height="48.8873" transform="matrix(0.0112168 0.999937 -0.999942 0.0108134 54.8844 18.5827)" fill="black"/>
<rect width="10.4046" height="48.4356" transform="matrix(-0.721518 0.692396 -0.705491 -0.708719 51.339 37.5615)" fill="black"/>
<ellipse cx="30.5" cy="24.1472" rx="20.2448" ry="18.8466" fill="black"/>
<ellipse cx="30.5" cy="24" rx="15.446" ry="13.9877" fill="#FEFCFC"/>
</g>
<defs>
<filter id="filter0_d" x="5.99998" y="0" width="58" height="56" filterUnits="userSpaceOnUse" color-interpolation-filters="sRGB">
<feFlood flood-opacity="0" result="BackgroundImageFix"/>
<feColorMatrix in="SourceAlpha" type="matrix" values="0 0 0 0 0 0 0 0 0 0 0 0 0 0 0 0 0 0 127 0"/>
<feOffset dx="5" dy="4"/>
<feGaussianBlur stdDeviation="2"/>
<feColorMatrix type="matrix" values="0 0 0 0 0.917647 0 0 0 0 0.701961 0 0 0 0 0 0 0 0 1 0"/>
<feBlend mode="normal" in2="BackgroundImageFix" result="effect1_dropShadow"/>
<feBlend mode="normal" in="SourceGraphic" in2="effect1_dropShadow" result="shape"/>
</filter>
</defs>
</svg>
