<svg width="65" height="72" viewBox="0 0 65 72" fill="none" xmlns="http://www.w3.org/2000/svg">
<path d="M4.93894 65.474C4.80094 65.474 4.68094 65.426 4.57894 65.33C4.47694 65.228 4.42594 65.108 4.42594 64.97V64.943C4.42594 64.805 4.47694 64.685 4.57894 64.583C4.68094 64.481 4.80094 64.43 4.93894 64.43H8.77294C8.91094 64.43 9.03094 64.481 9.13294 64.583C9.23494 64.685 9.28594 64.805 9.28594 64.943V64.97C9.28594 65.108 9.23494 65.228 9.13294 65.33C9.03094 65.426 8.91094 65.474 8.77294 65.474H7.56694C7.51894 65.474 7.49494 65.501 7.49494 65.555V70.487C7.49494 70.625 7.44394 70.745 7.34194 70.847C7.23994 70.949 7.11994 71 6.98194 71H6.72994C6.59194 71 6.47194 70.949 6.36994 70.847C6.26794 70.745 6.21694 70.625 6.21694 70.487V65.555C6.21694 65.501 6.19294 65.474 6.14494 65.474H4.93894ZM10.4616 71C10.3236 71 10.2036 70.949 10.1016 70.847C9.99964 70.745 9.94864 70.625 9.94864 70.487V66.833C9.94864 66.695 9.99964 66.575 10.1016 66.473C10.2036 66.371 10.3236 66.32 10.4616 66.32H10.6416C10.7796 66.32 10.8996 66.371 11.0016 66.473C11.1036 66.575 11.1546 66.695 11.1546 66.833V67.211C11.1546 67.217 11.1576 67.22 11.1636 67.22C11.1756 67.22 11.1816 67.217 11.1816 67.211C11.3556 66.971 11.5836 66.776 11.8656 66.626C12.1476 66.47 12.4566 66.374 12.7926 66.338C12.9186 66.326 13.0266 66.368 13.1166 66.464C13.2066 66.554 13.2516 66.662 13.2516 66.788C13.2516 66.914 13.2066 67.022 13.1166 67.112C13.0266 67.202 12.9186 67.253 12.7926 67.265C11.7306 67.349 11.1996 67.889 11.1996 68.885V70.487C11.1996 70.625 11.1486 70.745 11.0466 70.847C10.9446 70.949 10.8246 71 10.6866 71H10.4616ZM16.2493 68.75C15.3913 68.75 14.9623 69.014 14.9623 69.542C14.9623 69.734 15.0163 69.89 15.1243 70.01C15.2383 70.13 15.3823 70.19 15.5563 70.19C15.8983 70.19 16.1743 70.085 16.3843 69.875C16.5943 69.659 16.6993 69.365 16.6993 68.993V68.831C16.6993 68.777 16.6723 68.75 16.6183 68.75H16.2493ZM15.2323 71.09C14.8243 71.09 14.4853 70.958 14.2153 70.694C13.9513 70.424 13.8193 70.076 13.8193 69.65C13.8193 69.128 14.0173 68.723 14.4133 68.435C14.8153 68.147 15.4273 68.003 16.2493 68.003H16.6183C16.6723 68.003 16.6993 67.976 16.6993 67.922V67.85C16.6993 67.574 16.6333 67.382 16.5013 67.274C16.3693 67.16 16.1353 67.103 15.7993 67.103C15.4513 67.103 15.0253 67.166 14.5213 67.292C14.4133 67.322 14.3143 67.304 14.2243 67.238C14.1343 67.166 14.0893 67.073 14.0893 66.959C14.0893 66.821 14.1313 66.698 14.2153 66.59C14.2993 66.476 14.4073 66.407 14.5393 66.383C14.9953 66.281 15.4243 66.23 15.8263 66.23C16.5943 66.23 17.1313 66.368 17.4373 66.644C17.7433 66.92 17.8963 67.403 17.8963 68.093V70.487C17.8963 70.625 17.8453 70.745 17.7433 70.847C17.6473 70.949 17.5303 71 17.3923 71H17.2933C17.1493 71 17.0263 70.952 16.9243 70.856C16.8223 70.754 16.7683 70.631 16.7623 70.487V70.361C16.7623 70.355 16.7593 70.352 16.7533 70.352C16.7413 70.352 16.7353 70.355 16.7353 70.361C16.3693 70.847 15.8683 71.09 15.2323 71.09ZM19.6023 71C19.4643 71 19.3443 70.949 19.2423 70.847C19.1403 70.745 19.0893 70.625 19.0893 70.487V66.833C19.0893 66.695 19.1403 66.575 19.2423 66.473C19.3443 66.371 19.4643 66.32 19.6023 66.32H19.7193C19.8633 66.32 19.9833 66.371 20.0793 66.473C20.1813 66.569 20.2353 66.689 20.2413 66.833V66.896C20.2413 66.902 20.2443 66.905 20.2503 66.905C20.2563 66.905 20.2623 66.902 20.2683 66.896C20.6763 66.452 21.1533 66.23 21.6993 66.23C22.2453 66.23 22.6413 66.386 22.8873 66.698C23.1393 67.004 23.2653 67.517 23.2653 68.237V70.487C23.2653 70.625 23.2143 70.745 23.1123 70.847C23.0103 70.949 22.8903 71 22.7523 71H22.5993C22.4613 71 22.3413 70.949 22.2393 70.847C22.1433 70.745 22.0953 70.625 22.0953 70.487V68.327C22.0953 67.877 22.0353 67.571 21.9153 67.409C21.8013 67.241 21.5943 67.157 21.2943 67.157C21.0483 67.157 20.8203 67.262 20.6103 67.472C20.4003 67.682 20.2953 67.907 20.2953 68.147V70.487C20.2953 70.625 20.2443 70.745 20.1423 70.847C20.0403 70.949 19.9203 71 19.7823 71H19.6023ZM26.0704 69.11C25.4404 68.972 24.9904 68.783 24.7204 68.543C24.4564 68.303 24.3244 67.991 24.3244 67.607C24.3244 67.175 24.4834 66.839 24.8014 66.599C25.1254 66.353 25.6024 66.23 26.2324 66.23C26.6284 66.23 27.0214 66.266 27.4114 66.338C27.5434 66.362 27.6484 66.428 27.7264 66.536C27.8104 66.638 27.8524 66.758 27.8524 66.896C27.8524 67.01 27.8074 67.103 27.7174 67.175C27.6274 67.241 27.5254 67.259 27.4114 67.229C27.0754 67.145 26.7214 67.103 26.3494 67.103C25.8094 67.103 25.5394 67.253 25.5394 67.553C25.5394 67.697 25.5904 67.817 25.6924 67.913C25.7944 68.009 25.9684 68.084 26.2144 68.138C26.9044 68.276 27.3754 68.462 27.6274 68.696C27.8854 68.93 28.0144 69.272 28.0144 69.722C28.0144 70.154 27.8524 70.49 27.5284 70.73C27.2044 70.97 26.7334 71.09 26.1154 71.09C25.7134 71.09 25.3024 71.042 24.8824 70.946C24.7504 70.916 24.6424 70.847 24.5584 70.739C24.4744 70.625 24.4324 70.496 24.4324 70.352C24.4324 70.238 24.4774 70.151 24.5674 70.091C24.6634 70.031 24.7654 70.016 24.8734 70.046C25.2634 70.154 25.6324 70.208 25.9804 70.208C26.5264 70.208 26.7994 70.046 26.7994 69.722C26.7994 69.566 26.7454 69.443 26.6374 69.353C26.5354 69.263 26.3464 69.182 26.0704 69.11ZM31.3226 68.75C30.4646 68.75 30.0356 69.014 30.0356 69.542C30.0356 69.734 30.0896 69.89 30.1976 70.01C30.3116 70.13 30.4556 70.19 30.6296 70.19C30.9716 70.19 31.2476 70.085 31.4576 69.875C31.6676 69.659 31.7726 69.365 31.7726 68.993V68.831C31.7726 68.777 31.7456 68.75 31.6916 68.75H31.3226ZM30.3056 71.09C29.8976 71.09 29.5586 70.958 29.2886 70.694C29.0246 70.424 28.8926 70.076 28.8926 69.65C28.8926 69.128 29.0906 68.723 29.4866 68.435C29.8886 68.147 30.5006 68.003 31.3226 68.003H31.6916C31.7456 68.003 31.7726 67.976 31.7726 67.922V67.85C31.7726 67.574 31.7066 67.382 31.5746 67.274C31.4426 67.16 31.2086 67.103 30.8726 67.103C30.5246 67.103 30.0986 67.166 29.5946 67.292C29.4866 67.322 29.3876 67.304 29.2976 67.238C29.2076 67.166 29.1626 67.073 29.1626 66.959C29.1626 66.821 29.2046 66.698 29.2886 66.59C29.3726 66.476 29.4806 66.407 29.6126 66.383C30.0686 66.281 30.4976 66.23 30.8996 66.23C31.6676 66.23 32.2046 66.368 32.5106 66.644C32.8166 66.92 32.9696 67.403 32.9696 68.093V70.487C32.9696 70.625 32.9186 70.745 32.8166 70.847C32.7206 70.949 32.6036 71 32.4656 71H32.3666C32.2226 71 32.0996 70.952 31.9976 70.856C31.8956 70.754 31.8416 70.631 31.8356 70.487V70.361C31.8356 70.355 31.8326 70.352 31.8266 70.352C31.8146 70.352 31.8086 70.355 31.8086 70.361C31.4426 70.847 30.9416 71.09 30.3056 71.09ZM36.1695 71.09C35.4255 71.09 34.8525 70.886 34.4505 70.478C34.0485 70.064 33.8475 69.458 33.8475 68.66C33.8475 67.874 34.0395 67.274 34.4235 66.86C34.8135 66.44 35.3655 66.23 36.0795 66.23C36.3975 66.23 36.7035 66.251 36.9975 66.293C37.1355 66.311 37.2495 66.374 37.3395 66.482C37.4295 66.59 37.4745 66.716 37.4745 66.86C37.4745 66.98 37.4265 67.076 37.3305 67.148C37.2405 67.22 37.1355 67.244 37.0155 67.22C36.7815 67.172 36.5205 67.148 36.2325 67.148C35.8545 67.148 35.5725 67.268 35.3865 67.508C35.2005 67.748 35.1075 68.132 35.1075 68.66C35.1075 69.2 35.2065 69.587 35.4045 69.821C35.6025 70.055 35.9085 70.172 36.3225 70.172C36.6165 70.172 36.8715 70.145 37.0875 70.091C37.2015 70.061 37.3035 70.082 37.3935 70.154C37.4895 70.226 37.5375 70.319 37.5375 70.433C37.5375 70.577 37.4925 70.703 37.4025 70.811C37.3185 70.919 37.2075 70.985 37.0695 71.009C36.7635 71.063 36.4635 71.09 36.1695 71.09ZM38.9398 67.373C38.8198 67.373 38.7178 67.331 38.6338 67.247C38.5498 67.157 38.5078 67.052 38.5078 66.932C38.5078 66.812 38.5498 66.71 38.6338 66.626C38.7178 66.542 38.8198 66.5 38.9398 66.5H39.3718C39.4258 66.5 39.4528 66.473 39.4528 66.419V65.303C39.4528 65.165 39.5008 65.045 39.5968 64.943C39.6988 64.841 39.8188 64.79 39.9568 64.79H40.1368C40.2748 64.79 40.3948 64.841 40.4968 64.943C40.5988 65.045 40.6498 65.165 40.6498 65.303V66.419C40.6498 66.473 40.6768 66.5 40.7308 66.5H41.7568C41.8768 66.5 41.9788 66.542 42.0628 66.626C42.1528 66.71 42.1978 66.812 42.1978 66.932C42.1978 67.052 42.1528 67.157 42.0628 67.247C41.9788 67.331 41.8768 67.373 41.7568 67.373H40.7308C40.6768 67.373 40.6498 67.397 40.6498 67.445V69.263C40.6498 69.653 40.6918 69.905 40.7758 70.019C40.8598 70.133 41.0338 70.19 41.2978 70.19C41.4418 70.19 41.5498 70.184 41.6218 70.172C41.7418 70.16 41.8468 70.187 41.9368 70.253C42.0268 70.319 42.0718 70.409 42.0718 70.523C42.0718 70.655 42.0268 70.775 41.9368 70.883C41.8528 70.985 41.7478 71.042 41.6218 71.054C41.3578 71.078 41.1598 71.09 41.0278 71.09C40.4458 71.09 40.0378 70.967 39.8038 70.721C39.5698 70.469 39.4528 70.022 39.4528 69.38V67.445C39.4528 67.397 39.4258 67.373 39.3718 67.373H38.9398ZM44.2268 71C44.0888 71 43.9688 70.949 43.8668 70.847C43.7648 70.745 43.7138 70.625 43.7138 70.487V66.833C43.7138 66.695 43.7648 66.575 43.8668 66.473C43.9688 66.371 44.0888 66.32 44.2268 66.32H44.4608C44.5988 66.32 44.7188 66.371 44.8208 66.473C44.9228 66.575 44.9738 66.695 44.9738 66.833V70.487C44.9738 70.625 44.9228 70.745 44.8208 70.847C44.7188 70.949 44.5988 71 44.4608 71H44.2268ZM44.2268 65.33C44.0888 65.33 43.9688 65.279 43.8668 65.177C43.7648 65.075 43.7138 64.955 43.7138 64.817V64.763C43.7138 64.625 43.7648 64.505 43.8668 64.403C43.9688 64.301 44.0888 64.25 44.2268 64.25H44.4608C44.5988 64.25 44.7188 64.301 44.8208 64.403C44.9228 64.505 44.9738 64.625 44.9738 64.763V64.817C44.9738 64.955 44.9228 65.075 44.8208 65.177C44.7188 65.279 44.5988 65.33 44.4608 65.33H44.2268ZM49.2388 67.481C49.0648 67.229 48.8008 67.103 48.4468 67.103C48.0928 67.103 47.8258 67.229 47.6458 67.481C47.4718 67.727 47.3848 68.12 47.3848 68.66C47.3848 69.2 47.4718 69.596 47.6458 69.848C47.8258 70.094 48.0928 70.217 48.4468 70.217C48.8008 70.217 49.0648 70.094 49.2388 69.848C49.4188 69.596 49.5088 69.2 49.5088 68.66C49.5088 68.12 49.4188 67.727 49.2388 67.481ZM50.1208 70.46C49.7248 70.88 49.1668 71.09 48.4468 71.09C47.7268 71.09 47.1658 70.88 46.7638 70.46C46.3678 70.034 46.1698 69.434 46.1698 68.66C46.1698 67.886 46.3678 67.289 46.7638 66.869C47.1658 66.443 47.7268 66.23 48.4468 66.23C49.1668 66.23 49.7248 66.443 50.1208 66.869C50.5228 67.289 50.7238 67.886 50.7238 68.66C50.7238 69.434 50.5228 70.034 50.1208 70.46ZM52.1657 71C52.0277 71 51.9077 70.949 51.8057 70.847C51.7037 70.745 51.6527 70.625 51.6527 70.487V66.833C51.6527 66.695 51.7037 66.575 51.8057 66.473C51.9077 66.371 52.0277 66.32 52.1657 66.32H52.2827C52.4267 66.32 52.5467 66.371 52.6427 66.473C52.7447 66.569 52.7987 66.689 52.8047 66.833V66.896C52.8047 66.902 52.8077 66.905 52.8137 66.905C52.8197 66.905 52.8257 66.902 52.8317 66.896C53.2397 66.452 53.7167 66.23 54.2627 66.23C54.8087 66.23 55.2047 66.386 55.4507 66.698C55.7027 67.004 55.8287 67.517 55.8287 68.237V70.487C55.8287 70.625 55.7777 70.745 55.6757 70.847C55.5737 70.949 55.4537 71 55.3157 71H55.1627C55.0247 71 54.9047 70.949 54.8027 70.847C54.7067 70.745 54.6587 70.625 54.6587 70.487V68.327C54.6587 67.877 54.5987 67.571 54.4787 67.409C54.3647 67.241 54.1577 67.157 53.8577 67.157C53.6117 67.157 53.3837 67.262 53.1737 67.472C52.9637 67.682 52.8587 67.907 52.8587 68.147V70.487C52.8587 70.625 52.8077 70.745 52.7057 70.847C52.6037 70.949 52.4837 71 52.3457 71H52.1657ZM58.6339 69.11C58.0039 68.972 57.5539 68.783 57.2839 68.543C57.0199 68.303 56.8879 67.991 56.8879 67.607C56.8879 67.175 57.0469 66.839 57.3649 66.599C57.6889 66.353 58.1659 66.23 58.7959 66.23C59.1919 66.23 59.5849 66.266 59.9749 66.338C60.1069 66.362 60.2119 66.428 60.2899 66.536C60.3739 66.638 60.4159 66.758 60.4159 66.896C60.4159 67.01 60.3709 67.103 60.2809 67.175C60.1909 67.241 60.0889 67.259 59.9749 67.229C59.6389 67.145 59.2849 67.103 58.9129 67.103C58.3729 67.103 58.1029 67.253 58.1029 67.553C58.1029 67.697 58.1539 67.817 58.2559 67.913C58.3579 68.009 58.5319 68.084 58.7779 68.138C59.4679 68.276 59.9389 68.462 60.1909 68.696C60.4489 68.93 60.5779 69.272 60.5779 69.722C60.5779 70.154 60.4159 70.49 60.0919 70.73C59.7679 70.97 59.2969 71.09 58.6789 71.09C58.2769 71.09 57.8659 71.042 57.4459 70.946C57.3139 70.916 57.2059 70.847 57.1219 70.739C57.0379 70.625 56.9959 70.496 56.9959 70.352C56.9959 70.238 57.0409 70.151 57.1309 70.091C57.2269 70.031 57.3289 70.016 57.4369 70.046C57.8269 70.154 58.1959 70.208 58.5439 70.208C59.0899 70.208 59.3629 70.046 59.3629 69.722C59.3629 69.566 59.3089 69.443 59.2009 69.353C59.0989 69.263 58.9099 69.182 58.6339 69.11Z" fill="black"/>
<g filter="url(#filter0_d)">
<path d="M19.9393 10.9393C19.3536 11.5251 19.3536 12.4749 19.9393 13.0607L29.4853 22.6066C30.0711 23.1924 31.0208 23.1924 31.6066 22.6066C32.1924 22.0208 32.1924 21.0711 31.6066 20.4853L23.1213 12L31.6066 3.51472C32.1924 2.92893 32.1924 1.97919 31.6066 1.3934C31.0208 0.807611 30.0711 0.807611 29.4853 1.3934L19.9393 10.9393ZM49 10.5L21 10.5V13.5L49 13.5V10.5Z" fill="black"/>
</g>
<g filter="url(#filter1_d)">
<path d="M50.0573 39.1495C50.6449 38.5655 50.6478 37.6158 50.0638 37.0282L40.5471 27.4531C39.9631 26.8655 39.0133 26.8626 38.4258 27.4466C37.8382 28.0306 37.8353 28.9804 38.4193 29.5679L46.8786 38.0791L38.3674 46.5384C37.7798 47.1224 37.7769 48.0722 38.3609 48.6597C38.9449 49.2473 39.8946 49.2502 40.4822 48.6662L50.0573 39.1495ZM20.9954 39.5L48.9953 39.5856L49.0045 36.5856L21.0046 36.5L20.9954 39.5Z" fill="black"/>
</g>
<defs>
<filter id="filter0_d" x="19.5" y="0.954071" width="38.5" height="31.0919" filterUnits="userSpaceOnUse" color-interpolation-filters="sRGB">
<feFlood flood-opacity="0" result="BackgroundImageFix"/>
<feColorMatrix in="SourceAlpha" type="matrix" values="0 0 0 0 0 0 0 0 0 0 0 0 0 0 0 0 0 0 127 0"/>
<feOffset dx="5" dy="5"/>
<feGaussianBlur stdDeviation="2"/>
<feColorMatrix type="matrix" values="0 0 0 0 0.917647 0 0 0 0 0.701961 0 0 0 0 0 0 0 0 1 0"/>
<feBlend mode="normal" in2="BackgroundImageFix" result="effect1_dropShadow"/>
<feBlend mode="normal" in="SourceGraphic" in2="effect1_dropShadow" result="shape"/>
</filter>
<filter id="filter1_d" x="20.9954" y="27.0105" width="38.5045" height="30.0918" filterUnits="userSpaceOnUse" color-interpolation-filters="sRGB">
<feFlood flood-opacity="0" result="BackgroundImageFix"/>
<feColorMatrix in="SourceAlpha" type="matrix" values="0 0 0 0 0 0 0 0 0 0 0 0 0 0 0 0 0 0 127 0"/>
<feOffset dx="5" dy="4"/>
<feGaussianBlur stdDeviation="2"/>
<feColorMatrix type="matrix" values="0 0 0 0 0.917647 0 0 0 0 0.701961 0 0 0 0 0 0 0 0 1 0"/>
<feBlend mode="normal" in2="BackgroundImageFix" result="effect1_dropShadow"/>
<feBlend mode="normal" in="SourceGraphic" in2="effect1_dropShadow" result="shape"/>
</filter>
</defs>
</svg>
