<svg width="28" height="42" viewBox="0 0 28 42" fill="none" xmlns="http://www.w3.org/2000/svg">
<path d="M0.935914 10.0205C0.352028 10.6082 0.355104 11.5579 0.942785 12.1418L10.5196 21.6568C11.1073 22.2407 12.057 22.2376 12.6409 21.6499C13.2248 21.0622 13.2217 20.1125 12.634 19.5286L4.12131 11.0709L12.5791 2.55815C13.163 1.97046 13.1599 1.02072 12.5722 0.436836C11.9845 -0.14705 11.0348 -0.143974 10.4509 0.443707L0.935914 10.0205ZM25.995 9.50001L1.99515 9.57775L2.00486 12.5777L26.0047 12.5L25.995 9.50001Z" fill="black"/>
<path d="M27.0607 31.0607C27.6464 30.4749 27.6464 29.5251 27.0607 28.9393L17.5147 19.3934C16.9289 18.8076 15.9792 18.8076 15.3934 19.3934C14.8076 19.9792 14.8076 20.9289 15.3934 21.5147L23.8787 30L15.3934 38.4853C14.8076 39.0711 14.8076 40.0208 15.3934 40.6066C15.9792 41.1924 16.9289 41.1924 17.5147 40.6066L27.0607 31.0607ZM2 31.5H26V28.5H2V31.5Z" fill="black"/>
</svg>
