<svg width="65" height="69" viewBox="0 0 65 69" fill="none" xmlns="http://www.w3.org/2000/svg">
<g filter="url(#filter0_d)">
<rect x="14.0625" y="20.617" width="31.875" height="30.383" fill="black"/>
</g>
<g filter="url(#filter1_d)">
<path d="M30 0L44.7224 15.4628H15.2776L30 0Z" fill="black"/>
</g>
<path d="M21.819 68C21.681 68 21.561 67.949 21.459 67.847C21.363 67.745 21.315 67.625 21.315 67.487V61.943C21.315 61.805 21.363 61.685 21.459 61.583C21.561 61.481 21.681 61.43 21.819 61.43H22.062C22.2 61.43 22.32 61.481 22.422 61.583C22.524 61.685 22.575 61.805 22.575 61.943V63.986C22.575 64.034 22.599 64.058 22.647 64.058H24.897C24.945 64.058 24.969 64.034 24.969 63.986V61.943C24.969 61.805 25.02 61.685 25.122 61.583C25.224 61.481 25.344 61.43 25.482 61.43H25.725C25.863 61.43 25.98 61.481 26.076 61.583C26.178 61.685 26.229 61.805 26.229 61.943V67.487C26.229 67.625 26.178 67.745 26.076 67.847C25.98 67.949 25.863 68 25.725 68H25.482C25.344 68 25.224 67.949 25.122 67.847C25.02 67.745 24.969 67.625 24.969 67.487V65.102C24.969 65.048 24.945 65.021 24.897 65.021H22.647C22.599 65.021 22.575 65.048 22.575 65.102V67.487C22.575 67.625 22.524 67.745 22.422 67.847C22.32 67.949 22.2 68 22.062 68H21.819ZM30.3159 64.481C30.1419 64.229 29.8779 64.103 29.5239 64.103C29.1699 64.103 28.9029 64.229 28.7229 64.481C28.5489 64.727 28.4619 65.12 28.4619 65.66C28.4619 66.2 28.5489 66.596 28.7229 66.848C28.9029 67.094 29.1699 67.217 29.5239 67.217C29.8779 67.217 30.1419 67.094 30.3159 66.848C30.4959 66.596 30.5859 66.2 30.5859 65.66C30.5859 65.12 30.4959 64.727 30.3159 64.481ZM31.1979 67.46C30.8019 67.88 30.2439 68.09 29.5239 68.09C28.8039 68.09 28.2429 67.88 27.8409 67.46C27.4449 67.034 27.2469 66.434 27.2469 65.66C27.2469 64.886 27.4449 64.289 27.8409 63.869C28.2429 63.443 28.8039 63.23 29.5239 63.23C30.2439 63.23 30.8019 63.443 31.1979 63.869C31.5999 64.289 31.8009 64.886 31.8009 65.66C31.8009 66.434 31.5999 67.034 31.1979 67.46ZM33.2339 68C33.0959 68 32.9759 67.949 32.8739 67.847C32.7779 67.745 32.7299 67.625 32.7299 67.487V63.833C32.7299 63.695 32.7779 63.575 32.8739 63.473C32.9759 63.371 33.0959 63.32 33.2339 63.32H33.3599C33.4979 63.32 33.6149 63.368 33.7109 63.464C33.8129 63.56 33.8669 63.677 33.8729 63.815V63.878C33.8729 63.884 33.8759 63.887 33.8819 63.887C33.8939 63.887 33.8999 63.884 33.8999 63.878C34.2539 63.446 34.6529 63.23 35.0969 63.23C35.3669 63.23 35.5829 63.281 35.7449 63.383C35.9129 63.485 36.0599 63.665 36.1859 63.923C36.1859 63.929 36.1919 63.932 36.2039 63.932C36.2099 63.932 36.2159 63.929 36.2219 63.923C36.5999 63.461 37.0259 63.23 37.4999 63.23C37.9979 63.23 38.3549 63.365 38.5709 63.635C38.7929 63.905 38.9039 64.37 38.9039 65.03V67.487C38.9039 67.625 38.8529 67.745 38.7509 67.847C38.6549 67.949 38.5379 68 38.3999 68H38.2469C38.1089 68 37.9889 67.949 37.8869 67.847C37.7849 67.745 37.7339 67.625 37.7339 67.487V65.21C37.7339 64.772 37.6919 64.484 37.6079 64.346C37.5239 64.208 37.3619 64.139 37.1219 64.139C36.9659 64.139 36.8099 64.211 36.6539 64.355C36.4979 64.499 36.4199 64.643 36.4199 64.787V67.487C36.4199 67.625 36.3689 67.745 36.2669 67.847C36.1649 67.949 36.0449 68 35.9069 68H35.7539C35.6159 68 35.4959 67.949 35.3939 67.847C35.2979 67.745 35.2499 67.625 35.2499 67.487V65.21C35.2499 64.778 35.2049 64.493 35.1149 64.355C35.0309 64.211 34.8689 64.139 34.6289 64.139C34.4729 64.139 34.3169 64.211 34.1609 64.355C34.0049 64.499 33.9269 64.643 33.9269 64.787V67.487C33.9269 67.625 33.8759 67.745 33.7739 67.847C33.6719 67.949 33.5519 68 33.4139 68H33.2339ZM42.0119 64.067C41.7059 64.067 41.4689 64.154 41.3009 64.328C41.1389 64.496 41.0369 64.769 40.9949 65.147C40.9949 65.195 41.0189 65.219 41.0669 65.219H42.8309C42.8789 65.219 42.9029 65.195 42.9029 65.147C42.8789 64.427 42.5819 64.067 42.0119 64.067ZM42.2369 68.09C41.4509 68.09 40.8449 67.886 40.4189 67.478C39.9989 67.064 39.7889 66.458 39.7889 65.66C39.7889 64.868 39.9779 64.265 40.3559 63.851C40.7339 63.437 41.2799 63.23 41.9939 63.23C43.3259 63.23 44.0099 63.986 44.0459 65.498C44.0519 65.642 44.0009 65.762 43.8929 65.858C43.7849 65.954 43.6589 66.002 43.5149 66.002H41.0579C41.0039 66.002 40.9829 66.029 40.9949 66.083C41.0369 66.485 41.1689 66.779 41.3909 66.965C41.6189 67.145 41.9489 67.235 42.3809 67.235C42.6509 67.235 42.9509 67.19 43.2809 67.1C43.3889 67.07 43.4879 67.088 43.5779 67.154C43.6739 67.22 43.7219 67.31 43.7219 67.424C43.7219 67.562 43.6799 67.685 43.5959 67.793C43.5179 67.895 43.4129 67.958 43.2809 67.982C42.9449 68.054 42.5969 68.09 42.2369 68.09Z" fill="black"/>
<defs>
<filter id="filter0_d" x="14.0625" y="20.617" width="40.875" height="38.383" filterUnits="userSpaceOnUse" color-interpolation-filters="sRGB">
<feFlood flood-opacity="0" result="BackgroundImageFix"/>
<feColorMatrix in="SourceAlpha" type="matrix" values="0 0 0 0 0 0 0 0 0 0 0 0 0 0 0 0 0 0 127 0"/>
<feOffset dx="5" dy="4"/>
<feGaussianBlur stdDeviation="2"/>
<feColorMatrix type="matrix" values="0 0 0 0 0.917647 0 0 0 0 0.701961 0 0 0 0 0 0 0 0 1 0"/>
<feBlend mode="normal" in2="BackgroundImageFix" result="effect1_dropShadow"/>
<feBlend mode="normal" in="SourceGraphic" in2="effect1_dropShadow" result="shape"/>
</filter>
<filter id="filter1_d" x="15.2776" y="0" width="38.4449" height="23.4628" filterUnits="userSpaceOnUse" color-interpolation-filters="sRGB">
<feFlood flood-opacity="0" result="BackgroundImageFix"/>
<feColorMatrix in="SourceAlpha" type="matrix" values="0 0 0 0 0 0 0 0 0 0 0 0 0 0 0 0 0 0 127 0"/>
<feOffset dx="5" dy="4"/>
<feGaussianBlur stdDeviation="2"/>
<feColorMatrix type="matrix" values="0 0 0 0 0.917647 0 0 0 0 0.701961 0 0 0 0 0 0 0 0 1 0"/>
<feBlend mode="normal" in2="BackgroundImageFix" result="effect1_dropShadow"/>
<feBlend mode="normal" in="SourceGraphic" in2="effect1_dropShadow" result="shape"/>
</filter>
</defs>
</svg>
