<svg xmlns="http://www.w3.org/2000/svg" viewBox="0 0 2001 357">
  <path
    d="M474.65 354C456.97 354 439.367 353.473 421.84 352.42C403.456 351.237 385.181 348.724 367.16 344.9V38.8C383.323 35.9085 399.625 33.8558 416 32.65C433.68 31.3167 450.12 30.65 465.32 30.65C484.257 30.5327 503.172 31.981 521.87 34.98C539.083 37.8733 553.897 42.8067 566.31 49.78C578.222 56.2997 588.241 65.795 595.39 77.34C602.37 88.72 605.86 102.76 605.86 119.46C605.86 144.673 593.453 164.563 568.64 179.13C589.113 186.717 603.073 197.05 610.52 210.13C617.967 223.21 621.69 237.933 621.69 254.3C621.69 287.4 609.357 312.3 584.69 329C560.023 345.7 523.343 354.033 474.65 354ZM437.89 158.13H473.26C495.593 158.13 511.57 155.32 521.19 149.7C530.81 144.08 535.617 135.047 535.61 122.6C535.61 109.853 530.647 100.897 520.72 95.73C510.793 90.5634 496.22 87.9867 477 88C470.787 88 464.12 88.0767 457 88.23C449.88 88.3834 443.52 88.76 437.92 89.36L437.89 158.13ZM437.89 212.32V293.84C443.163 294.46 448.903 294.917 455.11 295.21C461.317 295.503 468.14 295.657 475.58 295.67C497.293 295.67 514.823 292.633 528.17 286.56C541.517 280.487 548.183 269.25 548.17 252.85C548.17 238.283 542.587 227.887 531.42 221.66C520.253 215.433 504.273 212.32 483.48 212.32H437.89Z"
    fill="#4d4d4d" />
  <path
    d="M727.8 41.08C727.8 53.5333 723.693 63.3233 715.48 70.45C707.361 77.3578 697.05 81.1511 686.39 81.1511C675.73 81.1511 665.419 77.3578 657.3 70.45C649.1 63.3233 645 53.5333 645 41.08C645 28.6267 649.1 18.8334 657.3 11.7C665.419 4.79226 675.73 0.998962 686.39 0.998962C697.05 0.998962 707.361 4.79226 715.48 11.7C723.693 18.84 727.8 28.6334 727.8 41.08ZM721.29 349.87H652V110.3H721.34L721.29 349.87Z"
    fill="#4d4d4d" />
  <path
    d="M760.84 50.64L830.18 39.71V110.3H913.47V166.78H830.18V251C830.18 265.28 832.74 276.67 837.86 285.17C842.98 293.67 853.293 297.947 868.8 298C876.511 297.97 884.205 297.285 891.8 295.95C899.175 294.729 906.42 292.821 913.44 290.25L923.25 343C914.166 346.557 904.834 349.448 895.33 351.65C885.09 354.07 872.523 355.283 857.63 355.29C838.71 355.29 823.043 352.783 810.63 347.77C798.217 342.757 788.29 335.773 780.85 326.82C773.397 317.88 768.2 307.027 765.26 294.26C762.188 280.353 760.705 266.142 760.84 251.9V50.64Z"
    fill="#4d4d4d" />
  <path
    d="M925.57 230.09C925.453 213.37 928.371 196.768 934.18 181.09C939.653 166.168 948.127 152.527 959.08 141.01C970.29 129.411 983.747 120.22 998.63 114C1014.13 107.333 1031.8 104 1051.63 104C1063.66 103.904 1075.67 105.047 1087.47 107.41C1098.3 109.685 1108.89 112.965 1119.11 117.21L1104.68 171.4C1097.69 168.833 1090.54 166.706 1083.28 165.03C1074.73 163.121 1065.98 162.202 1057.22 162.29C1036.74 162.29 1021.46 168.517 1011.39 180.97C1001.32 193.423 996.287 209.797 996.3 230.09C996.3 251.65 1001.03 268.35 1010.49 280.19C1019.95 292.03 1036.47 297.967 1060.05 298C1069.1 297.945 1078.12 297.183 1087.05 295.72C1096.15 294.347 1105.06 291.9 1113.58 288.43L1123.35 344C1115.28 347.333 1105.2 350.217 1093.1 352.65C1079.92 355.174 1066.52 356.393 1053.1 356.29C1030.76 356.29 1011.52 353.027 995.39 346.5C979.257 339.973 965.997 331.093 955.61 319.86C945.108 308.453 937.305 294.83 932.78 280C927.846 263.828 925.415 246.997 925.57 230.09Z"
    fill="#4d4d4d" />
  <path
    d="M1363.93 229.63C1363.93 248.463 1361.14 265.693 1355.55 281.32C1350.41 296.24 1342.16 309.9 1331.35 321.4C1320.68 332.573 1307.75 341.347 1293.43 347.14C1278.69 353.2 1262.17 356.233 1243.87 356.24C1225.87 356.24 1209.51 353.207 1194.78 347.14C1180.45 341.352 1167.51 332.577 1156.84 321.4C1146 309.844 1137.61 296.209 1132.19 281.32C1126.29 265.68 1123.34 248.45 1123.34 229.63C1123.34 210.81 1126.37 193.657 1132.42 178.17C1138.02 163.391 1146.56 149.907 1157.54 138.54C1168.39 127.519 1181.38 118.84 1195.71 113.04C1211.01 106.858 1227.37 103.762 1243.87 103.93C1261.55 103.93 1277.76 106.967 1292.5 113.04C1306.78 118.807 1319.69 127.492 1330.42 138.54C1341.26 149.931 1349.65 163.417 1355.09 178.17C1360.98 193.65 1363.93 210.803 1363.93 229.63ZM1293.19 229.63C1293.19 208.683 1288.93 192.213 1280.4 180.22C1271.87 168.227 1259.7 162.227 1243.87 162.22C1228.05 162.22 1215.8 168.22 1207.11 180.22C1198.42 192.22 1194.09 208.69 1194.11 229.63C1194.11 250.583 1198.44 267.207 1207.11 279.5C1215.78 291.793 1228.03 297.96 1243.87 298C1259.69 298 1271.87 291.85 1280.4 279.55C1288.93 267.25 1293.2 250.61 1293.19 229.63Z"
    fill="#4d4d4d" />
  <path
    d="M1470 41.08C1470 53.5334 1465.89 63.3233 1457.66 70.45C1449.54 77.357 1439.23 81.1499 1428.57 81.1499C1417.92 81.1499 1407.61 77.357 1399.49 70.45C1391.27 63.3167 1387.16 53.5267 1387.17 41.08C1387.18 28.6334 1391.28 18.84 1399.49 11.7C1407.61 4.79301 1417.92 1.00009 1428.57 1.00009C1439.23 1.00009 1449.54 4.79301 1457.66 11.7C1465.89 18.84 1470 28.6334 1470 41.08ZM1463.48 349.87H1394.14V110.3H1463.48V349.87Z"
    fill="#4d4d4d" />
  <path
    d="M1505.38 118.5C1517.17 115.167 1532.37 112.057 1550.99 109.17C1570.39 106.228 1589.99 104.78 1609.62 104.84C1630.4 104.84 1647.7 107.507 1661.51 112.84C1675.32 118.173 1686.26 125.69 1694.32 135.39C1702.58 145.492 1708.46 157.32 1711.53 170C1715.09 184.606 1716.81 199.598 1716.65 214.63V349.87H1647.31V222.8C1647.31 200.94 1644.36 185.453 1638.47 176.34C1632.58 167.227 1621.58 162.673 1605.47 162.68C1600.51 162.68 1595.24 162.907 1589.65 163.36C1584.06 163.813 1579.1 164.347 1574.76 164.96V349.87H1505.42L1505.38 118.5Z"
    fill="#4d4d4d" />
  <path
    d="M1911 252C1901.62 234.067 1892.1 213.067 1882.44 189C1872.78 164.933 1863.63 138.763 1855 110.49H1898.44C1900.28 117.49 1902.44 125.07 1904.93 133.23C1907.42 141.39 1909.99 149.64 1912.66 157.98C1915.33 166.333 1917.99 174.453 1920.66 182.34C1923.33 190.227 1925.95 197.403 1928.54 203.87C1930.93 197.41 1933.51 190.233 1936.26 182.34C1939.01 174.447 1941.73 166.327 1944.4 157.98C1947.07 149.653 1949.64 141.403 1952.13 133.23C1954.62 125.057 1956.78 117.477 1958.61 110.49H2001C1992.33 138.843 1983.19 165.037 1973.56 189.07C1963.93 213.103 1954.41 234.08 1945 252H1911Z"
    fill="#eab300" />
  <path
    d="M1847.18 197.8C1845.75 193.242 1843.31 189.067 1840.03 185.59C1835.99 181.435 1831.3 177.972 1826.14 175.34C1818.96 171.598 1811.52 168.379 1803.87 165.71C1799.48 164.083 1795.86 162.59 1793.01 161.23C1790.67 160.16 1788.41 158.896 1786.28 157.45C1784.87 156.556 1783.73 155.298 1782.98 153.81C1782.41 152.45 1782.12 150.986 1782.15 149.51C1782.15 142.523 1788.57 139.023 1801.4 139.01C1807.73 138.95 1814.04 139.583 1820.23 140.9C1825.48 142.063 1830.67 143.501 1835.77 145.21L1842.94 147.92V113.99C1836.68 111.797 1830.24 110.124 1823.7 108.99C1815.36 107.442 1806.89 106.675 1798.41 106.7C1780.81 106.7 1766.97 110.56 1756.89 118.28C1746.81 126 1741.77 136.493 1741.77 149.76C1741.61 155.73 1742.63 161.673 1744.77 167.25C1746.71 171.971 1749.61 176.233 1753.3 179.76C1757.24 183.44 1761.74 186.477 1766.63 188.76C1771.85 191.267 1777.67 193.687 1784.09 196.02C1792.34 199.073 1798.48 201.81 1802.51 204.23C1806.54 206.65 1808.54 209.473 1808.51 212.7C1808.51 216.827 1806.95 219.61 1803.83 221.05C1800.71 222.49 1795.4 223.207 1787.89 223.2C1780.59 223.186 1773.31 222.419 1766.17 220.91C1758.87 219.395 1751.7 217.281 1744.74 214.59V249.59C1747.7 250.49 1751.31 251.49 1755.58 252.59C1764.11 254.743 1774.78 255.823 1787.58 255.83C1807.19 255.83 1822.35 252.25 1833.08 245.09C1843.81 237.93 1849.17 227.367 1849.17 213.4C1849.28 208.13 1848.61 202.873 1847.18 197.8Z"
    fill="#eab300" />
  <path
    d="M323.75 179.44C325.648 202.803 322.443 226.299 314.358 248.3C306.273 270.301 293.5 290.281 276.926 306.856C260.351 323.43 240.371 336.203 218.37 344.288C196.369 352.373 172.873 355.578 149.51 353.68C71.16 347.5 7.69 284 1.52 205.67C-0.376539 182.308 2.82926 158.814 10.9153 136.814C19.0012 114.815 31.774 94.8364 48.3485 78.2638C64.9229 61.6913 84.9027 48.9208 106.903 40.8373C128.904 32.7539 152.399 29.5508 175.76 31.45C254.1 37.63 317.56 101.1 323.75 179.44Z"
    fill="#eab300" />
  <path
    d="M209 186.78C218.63 180.17 225.24 172.73 225.24 158.7C225.24 136.41 203.07 125.96 189.58 124.63C188.48 124.51 185.41 124.46 185.41 124.46V103.14H163.41L163.46 124.46H148.76V103.22H126.4V124.36C122.46 124.45 98.8 124.43 98.8 124.43V143.3C98.8 143.3 104.8 143.3 106.49 143.3C113.9 143.3 117.24 147.98 117.24 151.24V152.42V233.79C117.196 235.128 116.663 236.404 115.741 237.375C114.82 238.346 113.574 238.946 112.24 239.06C108.88 239.21 103.88 239.06 103.88 239.06L99.57 260.45H126.46V282H148.83V260.57H163.53V282.04H185.4V260.65C185.4 260.65 186.6 260.65 187.01 260.65C212.31 260.65 234.37 245.65 234.7 221.42C235 201.52 218 190 209 186.78ZM148.82 177.15V144.79C151.82 144.79 162.9 144.79 169.5 144.79C170.13 144.79 170.63 144.9 171.23 144.93C180.23 145.36 185.81 148.93 188.82 153.23C190.67 155.809 191.698 158.887 191.77 162.06C191.726 164.258 191.349 166.436 190.65 168.52C190.029 170.335 189.095 172.027 187.89 173.52C186.929 174.775 185.771 175.866 184.46 176.75C181.11 179.1 176.4 180.95 169.63 181.28C169.54 181.28 149.15 181.34 148.82 181.28V177.15ZM198.35 225.15C197.673 227.108 196.657 228.933 195.35 230.54C194.313 231.899 193.06 233.078 191.64 234.03C188.02 236.58 182.93 238.58 175.64 238.93C175.55 238.93 149.18 238.99 148.83 238.98V199.51C152.08 199.51 168.37 199.56 175.51 199.56C176.18 199.56 176.73 199.68 177.37 199.71C187.09 200.18 193.14 204.04 196.37 208.71C198.373 211.498 199.485 214.828 199.56 218.26C199.499 220.623 199.077 222.964 198.31 225.2L198.35 225.15Z"
    fill="white" />
</svg>