<svg width="65" height="71" viewBox="0 0 65 71" fill="none" xmlns="http://www.w3.org/2000/svg">
<path d="M4.86051 70C4.72251 70 4.60251 69.949 4.50051 69.847C4.40451 69.745 4.35651 69.625 4.35651 69.487V63.943C4.35651 63.805 4.40451 63.685 4.50051 63.583C4.60251 63.481 4.72251 63.43 4.86051 63.43H5.05851C5.40051 63.43 5.65251 63.58 5.81451 63.88L8.03751 67.894C8.03751 67.9 8.04051 67.903 8.04651 67.903C8.05251 67.903 8.05551 67.9 8.05551 67.894V63.943C8.05551 63.805 8.10651 63.685 8.20851 63.583C8.31051 63.481 8.43051 63.43 8.56851 63.43H8.76651C8.90451 63.43 9.02151 63.481 9.11751 63.583C9.21951 63.685 9.27051 63.805 9.27051 63.943V69.487C9.27051 69.625 9.21951 69.745 9.11751 69.847C9.02151 69.949 8.90451 70 8.76651 70H8.56851C8.22651 70 7.97451 69.85 7.81251 69.55L5.58951 65.536C5.58951 65.53 5.58651 65.527 5.58051 65.527C5.57451 65.527 5.57151 65.53 5.57151 65.536V69.487C5.57151 69.625 5.52051 69.745 5.41851 69.847C5.31651 69.949 5.19651 70 5.05851 70H4.86051ZM13.3574 66.481C13.1834 66.229 12.9194 66.103 12.5654 66.103C12.2114 66.103 11.9444 66.229 11.7644 66.481C11.5904 66.727 11.5034 67.12 11.5034 67.66C11.5034 68.2 11.5904 68.596 11.7644 68.848C11.9444 69.094 12.2114 69.217 12.5654 69.217C12.9194 69.217 13.1834 69.094 13.3574 68.848C13.5374 68.596 13.6274 68.2 13.6274 67.66C13.6274 67.12 13.5374 66.727 13.3574 66.481ZM14.2394 69.46C13.8434 69.88 13.2854 70.09 12.5654 70.09C11.8454 70.09 11.2844 69.88 10.8824 69.46C10.4864 69.034 10.2884 68.434 10.2884 67.66C10.2884 66.886 10.4864 66.289 10.8824 65.869C11.2844 65.443 11.8454 65.23 12.5654 65.23C13.2854 65.23 13.8434 65.443 14.2394 65.869C14.6414 66.289 14.8424 66.886 14.8424 67.66C14.8424 68.434 14.6414 69.034 14.2394 69.46ZM15.8905 66.373C15.7705 66.373 15.6685 66.331 15.5845 66.247C15.5005 66.157 15.4585 66.052 15.4585 65.932C15.4585 65.812 15.5005 65.71 15.5845 65.626C15.6685 65.542 15.7705 65.5 15.8905 65.5H16.3225C16.3765 65.5 16.4035 65.473 16.4035 65.419V64.303C16.4035 64.165 16.4515 64.045 16.5475 63.943C16.6495 63.841 16.7695 63.79 16.9075 63.79H17.0875C17.2255 63.79 17.3455 63.841 17.4475 63.943C17.5495 64.045 17.6005 64.165 17.6005 64.303V65.419C17.6005 65.473 17.6275 65.5 17.6815 65.5H18.7075C18.8275 65.5 18.9295 65.542 19.0135 65.626C19.1035 65.71 19.1485 65.812 19.1485 65.932C19.1485 66.052 19.1035 66.157 19.0135 66.247C18.9295 66.331 18.8275 66.373 18.7075 66.373H17.6815C17.6275 66.373 17.6005 66.397 17.6005 66.445V68.263C17.6005 68.653 17.6425 68.905 17.7265 69.019C17.8105 69.133 17.9845 69.19 18.2485 69.19C18.3925 69.19 18.5005 69.184 18.5725 69.172C18.6925 69.16 18.7975 69.187 18.8875 69.253C18.9775 69.319 19.0225 69.409 19.0225 69.523C19.0225 69.655 18.9775 69.775 18.8875 69.883C18.8035 69.985 18.6985 70.042 18.5725 70.054C18.3085 70.078 18.1105 70.09 17.9785 70.09C17.3965 70.09 16.9885 69.967 16.7545 69.721C16.5205 69.469 16.4035 69.022 16.4035 68.38V66.445C16.4035 66.397 16.3765 66.373 16.3225 66.373H15.8905ZM21.1774 70C21.0394 70 20.9194 69.949 20.8174 69.847C20.7154 69.745 20.6644 69.625 20.6644 69.487V65.833C20.6644 65.695 20.7154 65.575 20.8174 65.473C20.9194 65.371 21.0394 65.32 21.1774 65.32H21.4114C21.5494 65.32 21.6694 65.371 21.7714 65.473C21.8734 65.575 21.9244 65.695 21.9244 65.833V69.487C21.9244 69.625 21.8734 69.745 21.7714 69.847C21.6694 69.949 21.5494 70 21.4114 70H21.1774ZM21.1774 64.33C21.0394 64.33 20.9194 64.279 20.8174 64.177C20.7154 64.075 20.6644 63.955 20.6644 63.817V63.763C20.6644 63.625 20.7154 63.505 20.8174 63.403C20.9194 63.301 21.0394 63.25 21.1774 63.25H21.4114C21.5494 63.25 21.6694 63.301 21.7714 63.403C21.8734 63.505 21.9244 63.625 21.9244 63.763V63.817C21.9244 63.955 21.8734 64.075 21.7714 64.177C21.6694 64.279 21.5494 64.33 21.4114 64.33H21.1774ZM27.6475 63.25H27.8905C28.0285 63.25 28.1455 63.301 28.2415 63.403C28.3435 63.505 28.3945 63.625 28.3945 63.763V63.817C28.3945 63.955 28.3435 64.075 28.2415 64.177C28.1455 64.279 28.0285 64.33 27.8905 64.33H27.6475C27.5095 64.33 27.3895 64.279 27.2875 64.177C27.1855 64.075 27.1345 63.955 27.1345 63.817V63.763C27.1345 63.625 27.1855 63.505 27.2875 63.403C27.3895 63.301 27.5095 63.25 27.6475 63.25ZM23.6875 66.373C23.5675 66.373 23.4655 66.331 23.3815 66.247C23.2975 66.157 23.2555 66.052 23.2555 65.932C23.2555 65.812 23.2975 65.71 23.3815 65.626C23.4655 65.542 23.5675 65.5 23.6875 65.5H24.0565C24.1105 65.5 24.1375 65.473 24.1375 65.419V65.203C24.1375 64.561 24.2755 64.09 24.5515 63.79C24.8275 63.49 25.2505 63.34 25.8205 63.34C26.0185 63.34 26.1925 63.352 26.3425 63.376C26.4685 63.394 26.5705 63.457 26.6485 63.565C26.7325 63.667 26.7745 63.784 26.7745 63.916C26.7745 64.024 26.7295 64.111 26.6395 64.177C26.5495 64.237 26.4505 64.258 26.3425 64.24C26.2225 64.228 26.1385 64.222 26.0905 64.222C25.8265 64.222 25.6405 64.288 25.5325 64.42C25.4305 64.552 25.3795 64.801 25.3795 65.167V65.419C25.3795 65.473 25.4065 65.5 25.4605 65.5H27.8905C28.0285 65.5 28.1455 65.551 28.2415 65.653C28.3435 65.755 28.3945 65.875 28.3945 66.013V69.487C28.3945 69.625 28.3435 69.745 28.2415 69.847C28.1455 69.949 28.0285 70 27.8905 70H27.6475C27.5095 70 27.3895 69.949 27.2875 69.847C27.1855 69.745 27.1345 69.625 27.1345 69.487V66.445C27.1345 66.397 27.1105 66.373 27.0625 66.373H25.4605C25.4065 66.373 25.3795 66.397 25.3795 66.445V69.487C25.3795 69.625 25.3285 69.745 25.2265 69.847C25.1305 69.949 25.0135 70 24.8755 70H24.6505C24.5125 70 24.3925 69.949 24.2905 69.847C24.1885 69.745 24.1375 69.625 24.1375 69.487V66.445C24.1375 66.397 24.1105 66.373 24.0565 66.373H23.6875ZM31.6915 70.09C30.9475 70.09 30.3745 69.886 29.9725 69.478C29.5705 69.064 29.3695 68.458 29.3695 67.66C29.3695 66.874 29.5615 66.274 29.9455 65.86C30.3355 65.44 30.8875 65.23 31.6015 65.23C31.9195 65.23 32.2255 65.251 32.5195 65.293C32.6575 65.311 32.7715 65.374 32.8615 65.482C32.9515 65.59 32.9965 65.716 32.9965 65.86C32.9965 65.98 32.9485 66.076 32.8525 66.148C32.7625 66.22 32.6575 66.244 32.5375 66.22C32.3035 66.172 32.0425 66.148 31.7545 66.148C31.3765 66.148 31.0945 66.268 30.9085 66.508C30.7225 66.748 30.6295 67.132 30.6295 67.66C30.6295 68.2 30.7285 68.587 30.9265 68.821C31.1245 69.055 31.4305 69.172 31.8445 69.172C32.1385 69.172 32.3935 69.145 32.6095 69.091C32.7235 69.061 32.8255 69.082 32.9155 69.154C33.0115 69.226 33.0595 69.319 33.0595 69.433C33.0595 69.577 33.0145 69.703 32.9245 69.811C32.8405 69.919 32.7295 69.985 32.5915 70.009C32.2855 70.063 31.9855 70.09 31.6915 70.09ZM36.4598 67.75C35.6018 67.75 35.1728 68.014 35.1728 68.542C35.1728 68.734 35.2268 68.89 35.3348 69.01C35.4488 69.13 35.5928 69.19 35.7668 69.19C36.1088 69.19 36.3848 69.085 36.5948 68.875C36.8048 68.659 36.9098 68.365 36.9098 67.993V67.831C36.9098 67.777 36.8828 67.75 36.8288 67.75H36.4598ZM35.4428 70.09C35.0348 70.09 34.6958 69.958 34.4258 69.694C34.1618 69.424 34.0298 69.076 34.0298 68.65C34.0298 68.128 34.2278 67.723 34.6238 67.435C35.0258 67.147 35.6378 67.003 36.4598 67.003H36.8288C36.8828 67.003 36.9098 66.976 36.9098 66.922V66.85C36.9098 66.574 36.8438 66.382 36.7118 66.274C36.5798 66.16 36.3458 66.103 36.0098 66.103C35.6618 66.103 35.2358 66.166 34.7318 66.292C34.6238 66.322 34.5248 66.304 34.4348 66.238C34.3448 66.166 34.2998 66.073 34.2998 65.959C34.2998 65.821 34.3418 65.698 34.4258 65.59C34.5098 65.476 34.6178 65.407 34.7498 65.383C35.2058 65.281 35.6348 65.23 36.0368 65.23C36.8048 65.23 37.3418 65.368 37.6478 65.644C37.9538 65.92 38.1068 66.403 38.1068 67.093V69.487C38.1068 69.625 38.0558 69.745 37.9538 69.847C37.8578 69.949 37.7408 70 37.6028 70H37.5038C37.3598 70 37.2368 69.952 37.1348 69.856C37.0328 69.754 36.9788 69.631 36.9728 69.487V69.361C36.9728 69.355 36.9698 69.352 36.9638 69.352C36.9518 69.352 36.9458 69.355 36.9458 69.361C36.5798 69.847 36.0788 70.09 35.4428 70.09ZM39.2343 66.373C39.1143 66.373 39.0123 66.331 38.9283 66.247C38.8443 66.157 38.8023 66.052 38.8023 65.932C38.8023 65.812 38.8443 65.71 38.9283 65.626C39.0123 65.542 39.1143 65.5 39.2343 65.5H39.6663C39.7203 65.5 39.7473 65.473 39.7473 65.419V64.303C39.7473 64.165 39.7953 64.045 39.8913 63.943C39.9933 63.841 40.1133 63.79 40.2513 63.79H40.4313C40.5693 63.79 40.6893 63.841 40.7913 63.943C40.8933 64.045 40.9443 64.165 40.9443 64.303V65.419C40.9443 65.473 40.9713 65.5 41.0253 65.5H42.0513C42.1713 65.5 42.2733 65.542 42.3573 65.626C42.4473 65.71 42.4923 65.812 42.4923 65.932C42.4923 66.052 42.4473 66.157 42.3573 66.247C42.2733 66.331 42.1713 66.373 42.0513 66.373H41.0253C40.9713 66.373 40.9443 66.397 40.9443 66.445V68.263C40.9443 68.653 40.9863 68.905 41.0703 69.019C41.1543 69.133 41.3283 69.19 41.5923 69.19C41.7363 69.19 41.8443 69.184 41.9163 69.172C42.0363 69.16 42.1413 69.187 42.2313 69.253C42.3213 69.319 42.3663 69.409 42.3663 69.523C42.3663 69.655 42.3213 69.775 42.2313 69.883C42.1473 69.985 42.0423 70.042 41.9163 70.054C41.6523 70.078 41.4543 70.09 41.3223 70.09C40.7403 70.09 40.3323 69.967 40.0983 69.721C39.8643 69.469 39.7473 69.022 39.7473 68.38V66.445C39.7473 66.397 39.7203 66.373 39.6663 66.373H39.2343ZM44.5212 70C44.3832 70 44.2632 69.949 44.1612 69.847C44.0592 69.745 44.0082 69.625 44.0082 69.487V65.833C44.0082 65.695 44.0592 65.575 44.1612 65.473C44.2632 65.371 44.3832 65.32 44.5212 65.32H44.7552C44.8932 65.32 45.0132 65.371 45.1152 65.473C45.2172 65.575 45.2682 65.695 45.2682 65.833V69.487C45.2682 69.625 45.2172 69.745 45.1152 69.847C45.0132 69.949 44.8932 70 44.7552 70H44.5212ZM44.5212 64.33C44.3832 64.33 44.2632 64.279 44.1612 64.177C44.0592 64.075 44.0082 63.955 44.0082 63.817V63.763C44.0082 63.625 44.0592 63.505 44.1612 63.403C44.2632 63.301 44.3832 63.25 44.5212 63.25H44.7552C44.8932 63.25 45.0132 63.301 45.1152 63.403C45.2172 63.505 45.2682 63.625 45.2682 63.763V63.817C45.2682 63.955 45.2172 64.075 45.1152 64.177C45.0132 64.279 44.8932 64.33 44.7552 64.33H44.5212ZM49.5332 66.481C49.3592 66.229 49.0952 66.103 48.7412 66.103C48.3872 66.103 48.1202 66.229 47.9402 66.481C47.7662 66.727 47.6792 67.12 47.6792 67.66C47.6792 68.2 47.7662 68.596 47.9402 68.848C48.1202 69.094 48.3872 69.217 48.7412 69.217C49.0952 69.217 49.3592 69.094 49.5332 68.848C49.7132 68.596 49.8032 68.2 49.8032 67.66C49.8032 67.12 49.7132 66.727 49.5332 66.481ZM50.4152 69.46C50.0192 69.88 49.4612 70.09 48.7412 70.09C48.0212 70.09 47.4602 69.88 47.0582 69.46C46.6622 69.034 46.4642 68.434 46.4642 67.66C46.4642 66.886 46.6622 66.289 47.0582 65.869C47.4602 65.443 48.0212 65.23 48.7412 65.23C49.4612 65.23 50.0192 65.443 50.4152 65.869C50.8172 66.289 51.0182 66.886 51.0182 67.66C51.0182 68.434 50.8172 69.034 50.4152 69.46ZM52.4602 70C52.3222 70 52.2022 69.949 52.1002 69.847C51.9982 69.745 51.9472 69.625 51.9472 69.487V65.833C51.9472 65.695 51.9982 65.575 52.1002 65.473C52.2022 65.371 52.3222 65.32 52.4602 65.32H52.5772C52.7212 65.32 52.8412 65.371 52.9372 65.473C53.0392 65.569 53.0932 65.689 53.0992 65.833V65.896C53.0992 65.902 53.1022 65.905 53.1082 65.905C53.1142 65.905 53.1202 65.902 53.1262 65.896C53.5342 65.452 54.0112 65.23 54.5572 65.23C55.1032 65.23 55.4992 65.386 55.7452 65.698C55.9972 66.004 56.1232 66.517 56.1232 67.237V69.487C56.1232 69.625 56.0722 69.745 55.9702 69.847C55.8682 69.949 55.7482 70 55.6102 70H55.4572C55.3192 70 55.1992 69.949 55.0972 69.847C55.0012 69.745 54.9532 69.625 54.9532 69.487V67.327C54.9532 66.877 54.8932 66.571 54.7732 66.409C54.6592 66.241 54.4522 66.157 54.1522 66.157C53.9062 66.157 53.6782 66.262 53.4682 66.472C53.2582 66.682 53.1532 66.907 53.1532 67.147V69.487C53.1532 69.625 53.1022 69.745 53.0002 69.847C52.8982 69.949 52.7782 70 52.6402 70H52.4602ZM58.9283 68.11C58.2983 67.972 57.8483 67.783 57.5783 67.543C57.3143 67.303 57.1823 66.991 57.1823 66.607C57.1823 66.175 57.3413 65.839 57.6593 65.599C57.9833 65.353 58.4603 65.23 59.0903 65.23C59.4863 65.23 59.8793 65.266 60.2693 65.338C60.4013 65.362 60.5063 65.428 60.5843 65.536C60.6683 65.638 60.7103 65.758 60.7103 65.896C60.7103 66.01 60.6653 66.103 60.5753 66.175C60.4853 66.241 60.3833 66.259 60.2693 66.229C59.9333 66.145 59.5793 66.103 59.2073 66.103C58.6673 66.103 58.3973 66.253 58.3973 66.553C58.3973 66.697 58.4483 66.817 58.5503 66.913C58.6523 67.009 58.8263 67.084 59.0723 67.138C59.7623 67.276 60.2333 67.462 60.4853 67.696C60.7433 67.93 60.8723 68.272 60.8723 68.722C60.8723 69.154 60.7103 69.49 60.3863 69.73C60.0623 69.97 59.5913 70.09 58.9733 70.09C58.5713 70.09 58.1603 70.042 57.7403 69.946C57.6083 69.916 57.5003 69.847 57.4163 69.739C57.3323 69.625 57.2903 69.496 57.2903 69.352C57.2903 69.238 57.3353 69.151 57.4253 69.091C57.5213 69.031 57.6233 69.016 57.7313 69.046C58.1213 69.154 58.4903 69.208 58.8383 69.208C59.3843 69.208 59.6573 69.046 59.6573 68.722C59.6573 68.566 59.6033 68.443 59.4953 68.353C59.3933 68.263 59.2043 68.182 58.9283 68.11Z" fill="black"/>
<g filter="url(#filter0_d)">
<rect y="2.99997" width="46" height="42" fill="black"/>
</g>
<path d="M1.71479 2.73152L24 19" stroke="#FFFEFE"/>
<path d="M47.9244 2.40714L23.5 19.5" stroke="#FFFAFA"/>
<defs>
<filter id="filter0_d" x="0" y="2.99997" width="56" height="50" filterUnits="userSpaceOnUse" color-interpolation-filters="sRGB">
<feFlood flood-opacity="0" result="BackgroundImageFix"/>
<feColorMatrix in="SourceAlpha" type="matrix" values="0 0 0 0 0 0 0 0 0 0 0 0 0 0 0 0 0 0 127 0"/>
<feOffset dx="6" dy="4"/>
<feGaussianBlur stdDeviation="2"/>
<feColorMatrix type="matrix" values="0 0 0 0 0.917647 0 0 0 0 0.701961 0 0 0 0 0 0 0 0 1 0"/>
<feBlend mode="normal" in2="BackgroundImageFix" result="effect1_dropShadow"/>
<feBlend mode="normal" in="SourceGraphic" in2="effect1_dropShadow" result="shape"/>
</filter>
</defs>
</svg>
